<?xml version="1.0" standalone="no"?>
<!DOCTYPE svg PUBLIC "-//W3C//DTD SVG 20010904//EN"
 "http://www.w3.org/TR/2001/REC-SVG-20010904/DTD/svg10.dtd">
<svg version="1.0" xmlns="http://www.w3.org/2000/svg"
 width="500.000000pt" height="500.000000pt" viewBox="0 0 500.000000 500.000000"
 preserveAspectRatio="xMidYMid meet">
<metadata>
Created by potrace 1.14, written by Peter Selinger 2001-2017
</metadata>
<g transform="translate(0.000000,500.000000) scale(0.100000,-0.100000)"
fill="#000000" stroke="none">
<path d="M0 2500 l0 -2500 2500 0 2500 0 0 2500 0 2500 -2500 0 -2500 0 0
-2500z m2826 1654 c13 -45 13 -64 4 -110 -7 -30 -13 -54 -15 -52 -2 2 -15 20
-29 41 -28 41 -35 121 -16 172 9 23 13 25 25 15 8 -7 22 -37 31 -66z m-306 30
c77 -22 129 -55 189 -119 68 -76 67 -91 -4 -59 -142 62 -355 181 -355 198 0
11 100 -1 170 -20z m570 9 c0 -40 -41 -78 -130 -124 -65 -34 -90 -43 -90 -32
0 38 69 126 119 153 47 25 101 27 101 3z m-684 -79 c85 -53 262 -143 313 -159
46 -14 -6 -28 -88 -23 -81 5 -164 35 -228 84 -43 33 -113 154 -89 154 2 0 44
-25 92 -56z m925 -40 c38 -8 69 -20 69 -25 0 -5 -37 -9 -83 -9 -97 0 -223 -14
-325 -36 -41 -9 -76 -13 -79 -10 -9 8 123 68 182 82 71 17 154 17 236 -2z
m129 -83 c0 -18 -86 -84 -145 -111 -65 -30 -153 -50 -220 -50 -90 0 -243 61
-232 93 4 14 115 41 247 61 109 16 350 21 350 7z m-715 -232 c-59 -224 -82
-595 -51 -824 9 -66 19 -130 22 -142 6 -22 4 -23 -66 -23 l-73 0 7 184 c10
291 35 491 82 654 25 86 81 219 89 211 2 -3 -2 -30 -10 -60z m-275 -111 c81
-41 135 -111 124 -162 -9 -42 -12 -44 -31 -15 -51 76 -171 157 -281 190 -61
18 -33 31 53 25 51 -4 86 -14 135 -38z m-205 -25 c116 -36 212 -101 265 -179
l31 -44 -64 0 c-166 0 -290 85 -332 228 -6 21 -4 22 22 17 15 -4 51 -14 78
-22z m805 -97 c0 -3 -26 -12 -57 -21 -81 -24 -177 -69 -235 -111 -28 -19 -52
-34 -54 -31 -8 7 54 84 85 106 50 36 131 60 199 61 34 0 62 -2 62 -4z m60 -45
c0 -17 -92 -90 -144 -115 -72 -34 -226 -60 -226 -38 0 10 106 77 155 98 44 19
183 63 203 63 6 1 12 -3 12 -8z m-2350 -206 c0 -10 -10 -15 -30 -15 l-30 0 0
-80 c0 -64 -3 -80 -15 -80 -12 0 -15 16 -15 80 l0 80 -35 0 c-24 0 -35 5 -35
15 0 12 16 15 80 15 64 0 80 -3 80 -15z m230 -25 l0 -40 54 0 55 0 3 37 c2 20
9 38 16 41 9 3 12 -20 12 -92 0 -79 -3 -96 -15 -96 -11 0 -15 11 -15 40 l0 40
-55 0 -55 0 0 -40 c0 -29 -4 -40 -15 -40 -12 0 -15 17 -15 95 0 78 3 95 15 95
11 0 15 -11 15 -40z m500 25 c0 -12 -13 -15 -55 -15 -52 0 -55 -1 -55 -25 0
-23 3 -25 50 -25 38 0 50 -4 50 -15 0 -11 -12 -15 -50 -15 -47 0 -50 -2 -50
-25 0 -24 3 -25 55 -25 42 0 55 -3 55 -15 0 -12 -14 -15 -70 -15 l-70 0 0 95
0 95 70 0 c56 0 70 -3 70 -15z m1700 -78 c74 -30 179 -71 233 -92 113 -44 179
-97 343 -279 125 -137 142 -146 279 -146 l105 0 0 -314 0 -314 -139 -4 -139
-3 -128 -65 -129 -65 -495 -3 c-272 -2 -510 0 -528 3 -68 13 -97 93 -50 142
21 23 22 23 298 23 282 0 315 4 289 37 -9 10 -86 13 -377 13 -362 0 -366 0
-389 22 -33 31 -31 87 3 119 l26 24 356 3 c196 1 363 5 371 7 11 4 11 8 1 20
-11 13 -72 15 -424 15 l-413 0 -20 23 c-24 26 -30 51 -20 89 15 56 27 58 470
58 222 0 406 3 410 6 3 3 3 12 0 20 -4 12 -70 14 -398 14 l-393 0 -26 31 c-33
39 -33 71 2 109 l27 31 410 10 c450 13 455 13 481 74 28 69 11 95 -124 191
-82 58 -122 120 -122 189 0 28 6 57 13 64 17 17 42 11 197 -52z m-1930 -321
c162 -35 273 -110 321 -218 33 -75 33 -210 0 -285 -29 -66 -104 -136 -183
-172 l-61 -28 38 -7 c90 -17 194 -79 236 -141 l24 -34 11 40 c9 28 9 49 2 69
-5 16 -8 43 -6 61 3 34 7 38 90 73 33 13 39 22 54 73 23 80 44 107 124 153 75
44 85 61 110 181 13 69 62 141 121 181 50 33 121 38 172 11 18 -9 60 -20 94
-24 35 -3 70 -13 79 -20 15 -13 13 -15 -22 -21 -21 -4 -59 -7 -84 -8 -57 0
-88 -16 -117 -59 -28 -41 -29 -85 -5 -126 l18 -29 -33 -29 c-43 -38 -59 -94
-39 -140 17 -41 60 -77 93 -77 20 0 24 -3 17 -17 -4 -10 -9 -41 -12 -69 -3
-46 0 -56 25 -83 29 -33 78 -50 141 -51 30 0 32 -2 22 -21 -17 -31 -14 -96 5
-126 18 -26 17 -27 -11 -50 -61 -49 -123 -51 -242 -7 -77 29 -96 30 -184 3
-47 -15 -82 -19 -109 -15 -21 3 -39 5 -39 3 0 -2 25 -59 56 -128 31 -68 67
-148 79 -176 l24 -53 -33 0 c-30 0 -35 4 -50 45 l-18 45 -94 0 -94 0 -22 -45
c-18 -37 -27 -45 -50 -45 -15 0 -28 1 -28 3 0 2 35 82 79 178 70 157 81 174
106 179 l27 5 -43 35 c-40 32 -50 35 -109 35 -36 0 -71 4 -78 8 -10 7 -11 2
-5 -20 4 -15 8 -80 8 -143 0 -100 -3 -121 -24 -163 -38 -78 -104 -142 -184
-182 -130 -63 -161 -68 -479 -73 l-288 -4 0 761 0 761 253 0 c177 0 271 -4
317 -14z m1690 -46 c30 -15 57 -20 108 -18 66 1 125 -15 92 -26 -22 -7 -380
-13 -380 -6 0 11 24 36 50 54 33 22 82 20 130 -4z m-1041 -286 c17 -4 31 -9
31 -13 0 -3 -28 -22 -62 -41 -72 -41 -111 -91 -128 -161 -9 -37 -19 -53 -36
-61 -32 -15 -44 -2 -51 51 -5 37 -3 43 32 74 21 19 49 46 62 60 14 13 40 41
58 61 34 38 42 40 94 30z m756 -683 c58 -26 70 -43 46 -66 -19 -16 -21 -16
-50 4 -16 12 -43 24 -59 27 -40 8 -100 -12 -107 -37 -12 -38 15 -53 137 -79
43 -8 64 -19 83 -41 29 -36 31 -49 9 -94 -34 -71 -170 -93 -258 -41 -50 29
-56 44 -27 70 17 15 19 15 31 1 39 -47 153 -62 190 -25 11 11 20 24 20 29 0
21 -33 40 -88 51 -88 19 -131 39 -147 71 -21 40 -19 63 11 98 43 51 136 65
209 32z m685 -16 c0 -22 -4 -25 -40 -25 l-40 0 0 -130 0 -130 40 0 c36 0 40
-2 40 -25 l0 -25 -110 0 c-110 0 -110 0 -110 24 0 21 5 25 38 28 l37 3 3 128
3 127 -41 0 c-36 0 -40 2 -40 25 l0 25 110 0 110 0 0 -25z m599 -115 c68 -77
125 -140 125 -140 1 0 -1 63 -2 140 l-4 140 31 0 31 0 0 -180 0 -180 -29 0
c-27 0 -67 38 -270 262 -15 16 -16 5 -13 -122 l4 -140 -31 0 -31 0 0 180 0
180 33 0 c28 -1 45 -16 156 -140z m-3414 -475 c0 -5 -17 -11 -37 -13 -51 -4
-53 -32 -3 -32 19 0 35 -4 35 -10 0 -5 -16 -10 -35 -10 -28 0 -35 -4 -35 -20
0 -17 7 -20 40 -20 22 0 40 -4 40 -10 0 -5 -25 -10 -55 -10 l-55 0 0 63 c0 35
3 67 7 71 11 10 98 3 98 -9z m96 -20 c13 -19 27 -35 30 -35 4 0 19 16 33 35
15 20 32 33 37 30 5 -4 9 -35 9 -71 0 -50 -3 -64 -15 -64 -11 0 -15 12 -15 46
l0 45 -25 -28 -24 -28 -25 30 -25 30 -1 -47 c0 -27 -4 -48 -10 -48 -6 0 -10
30 -10 70 0 39 4 70 9 70 5 0 19 -16 32 -35z m257 19 c12 -8 22 -21 22 -29 0
-23 -30 -45 -61 -45 -24 0 -29 -4 -29 -25 0 -16 -6 -25 -15 -25 -12 0 -15 14
-15 63 0 35 3 67 7 70 12 13 68 7 91 -9z m195 -15 c53 -65 -40 -143 -111 -93
-15 10 -22 25 -22 49 0 68 88 97 133 44z m88 -27 l16 -47 16 38 c9 20 21 37
27 37 6 0 18 -17 27 -37 l16 -38 17 49 c9 28 22 52 29 54 14 5 11 -10 -19 -88
-22 -56 -35 -60 -50 -16 -15 45 -25 45 -41 1 -7 -19 -18 -34 -24 -32 -12 4
-55 119 -48 130 8 13 17 -1 34 -51z m304 43 c0 -5 -17 -11 -37 -13 -51 -4 -53
-32 -3 -32 19 0 35 -4 35 -10 0 -5 -16 -10 -35 -10 -28 0 -35 -4 -35 -20 0
-17 7 -20 40 -20 22 0 40 -4 40 -10 0 -5 -25 -10 -55 -10 l-55 0 0 63 c0 35 3
67 7 71 11 10 98 3 98 -9z m139 5 c28 -10 36 -46 15 -67 -9 -9 -8 -18 5 -37
13 -21 14 -26 2 -26 -7 0 -21 11 -30 25 -9 14 -25 25 -36 25 -15 0 -20 -7 -20
-25 0 -14 -4 -25 -10 -25 -6 0 -10 30 -10 70 l0 70 29 0 c16 0 41 -4 55 -10z
m166 -5 c0 -8 -7 -15 -15 -15 -11 0 -15 -12 -15 -45 0 -33 4 -45 15 -45 8 0
15 -4 15 -10 0 -5 -18 -10 -40 -10 -22 0 -40 5 -40 10 0 6 7 10 15 10 11 0 15
12 15 45 0 33 -4 45 -15 45 -8 0 -15 7 -15 15 0 11 11 15 40 15 29 0 40 -4 40
-15z m178 -50 c-2 28 2 52 7 55 6 3 11 -22 13 -62 4 -85 -9 -88 -72 -15 l-46
52 0 -52 c0 -29 -4 -53 -10 -53 -12 0 -14 123 -2 134 4 5 31 -18 60 -50 l53
-58 -3 49z m178 55 c35 -14 23 -25 -22 -21 -41 3 -64 -12 -64 -43 0 -39 39
-57 84 -40 25 9 19 24 -9 24 -14 0 -25 5 -25 10 0 6 16 10 35 10 27 0 35 -4
35 -18 0 -57 -96 -70 -134 -19 -19 26 -19 30 -5 55 13 23 51 51 71 52 4 0 19
-5 34 -10z m244 -5 c0 -8 -7 -15 -15 -15 -11 0 -15 -12 -15 -45 0 -33 4 -45
15 -45 8 0 15 -4 15 -10 0 -5 -18 -10 -40 -10 -22 0 -40 5 -40 10 0 6 7 10 15
10 11 0 15 12 15 45 0 33 -4 45 -15 45 -8 0 -15 7 -15 15 0 11 11 15 40 15 29
0 40 -4 40 -15z m122 -37 l47 -53 1 47 c0 26 5 50 10 53 6 4 10 -20 10 -64 0
-39 -4 -71 -9 -71 -4 0 -29 22 -55 50 l-46 49 0 -49 c0 -28 -4 -50 -10 -50
-12 0 -14 140 -2 140 4 0 28 -23 54 -52z m247 27 c20 -20 18 -71 -4 -95 -13
-15 -31 -20 -67 -20 l-48 0 0 63 c0 35 3 67 8 71 11 12 95 -2 111 -19z m146
15 c3 -6 -1 -13 -9 -16 -22 -8 -23 -94 -1 -94 8 0 15 -4 15 -10 0 -5 -20 -10
-45 -10 -25 0 -45 5 -45 10 0 6 7 10 15 10 22 0 21 86 -1 94 -25 10 -6 26 31
26 19 0 37 -5 40 -10z m139 -27 c43 -89 47 -103 31 -103 -8 0 -15 7 -15 15 0
23 -76 20 -89 -2 -5 -10 -12 -15 -16 -11 -8 8 51 138 63 138 4 0 16 -17 26
-37z m206 -15 c0 29 5 52 10 52 6 0 10 -30 10 -70 0 -47 -4 -70 -12 -70 -6 0
-33 24 -59 53 l-48 52 6 -52 c5 -45 3 -53 -11 -53 -13 0 -16 11 -16 63 0 35 3
67 7 71 4 3 31 -17 60 -46 l53 -52 0 52z m260 37 c0 -11 -11 -15 -40 -15 -29
0 -40 -4 -40 -15 0 -10 11 -15 35 -15 19 0 35 -4 35 -10 0 -5 -16 -10 -35 -10
-32 0 -35 -2 -35 -30 0 -16 -4 -30 -10 -30 -6 0 -10 30 -10 70 l0 70 50 0 c38
0 50 -4 50 -15z m153 -67 c19 -42 22 -58 13 -58 -8 0 -16 7 -20 15 -3 9 -19
15 -41 15 -22 0 -38 -6 -41 -15 -4 -8 -12 -15 -20 -15 -9 0 -6 16 14 58 41 85
42 86 57 70 7 -7 24 -39 38 -70z m151 72 c28 -10 36 -46 15 -67 -9 -9 -8 -18
5 -37 13 -21 14 -26 2 -26 -7 0 -21 11 -30 25 -9 14 -25 25 -36 25 -15 0 -20
-7 -20 -25 0 -14 -4 -25 -10 -25 -6 0 -10 30 -10 70 l0 70 29 0 c16 0 41 -4
55 -10z m190 -27 c16 20 32 34 37 31 12 -7 11 -134 -1 -134 -5 0 -10 21 -10
48 l-1 47 -24 -27 c-13 -16 -27 -28 -30 -28 -3 0 -17 12 -30 28 l-24 27 -1
-47 c0 -27 -4 -48 -10 -48 -11 0 -14 123 -3 134 4 4 21 -10 38 -30 l32 -37 27
36z m206 22 c0 -11 -11 -15 -40 -15 -29 0 -40 -4 -40 -15 0 -10 11 -15 35 -15
19 0 35 -4 35 -10 0 -5 -16 -10 -35 -10 -28 0 -35 -4 -35 -20 0 -17 7 -20 40
-20 22 0 40 -4 40 -10 0 -5 -22 -10 -50 -10 l-50 0 0 70 0 70 50 0 c38 0 50
-4 50 -15z m148 -1 c25 -18 28 -37 8 -57 -13 -12 -13 -17 1 -36 23 -33 5 -40
-21 -8 -28 35 -56 36 -56 2 0 -16 -6 -25 -15 -25 -12 0 -15 14 -15 63 0 35 3
67 7 70 12 13 68 7 91 -9z m168 2 c26 -20 13 -30 -20 -15 -19 9 -30 9 -37 2
-14 -14 -3 -33 19 -33 20 0 62 -27 62 -40 0 -35 -85 -55 -110 -25 -16 19 -5
34 12 17 7 -7 25 -12 40 -12 43 0 35 27 -11 40 -48 13 -61 38 -31 62 27 22 50
23 76 4z"/>
<path d="M2174 2739 c-8 -14 11 -33 25 -25 6 4 11 14 11 22 0 16 -26 19 -36 3z"/>
<path d="M910 2494 l0 -245 178 3 c168 3 180 4 227 29 69 35 104 93 112 185 6
82 -7 141 -44 184 -55 66 -146 90 -345 90 l-128 0 0 -246z"/>
<path d="M2124 2569 c-10 -17 13 -36 27 -22 12 12 4 33 -11 33 -5 0 -12 -5
-16 -11z"/>
<path d="M2042 2413 c4 -21 33 -25 33 -3 0 8 -8 16 -18 18 -14 3 -18 -1 -15
-15z"/>
<path d="M2147 2324 c-14 -14 -7 -35 11 -32 9 2 17 10 17 17 0 16 -18 25 -28
15z"/>
<path d="M1900 2300 c0 -15 5 -20 18 -18 9 2 17 10 17 18 0 8 -8 16 -17 18
-13 2 -18 -3 -18 -18z"/>
<path d="M2245 2181 c-8 -15 3 -31 21 -31 9 0 14 7 12 17 -4 20 -24 28 -33 14z"/>
<path d="M1883 2135 c-7 -20 2 -29 21 -22 9 4 13 13 10 22 -8 19 -23 19 -31 0z"/>
<path d="M2084 2129 c-10 -17 13 -36 27 -22 12 12 4 33 -11 33 -5 0 -12 -5
-16 -11z"/>
<path d="M910 1811 l0 -281 155 0 c211 0 292 19 359 86 52 53 61 80 61 189 -1
115 -18 161 -80 213 -62 51 -120 64 -317 69 l-178 6 0 -282z"/>
<path d="M1717 2054 c-14 -15 -6 -34 14 -34 14 0 19 5 17 17 -3 18 -20 27 -31
17z"/>
<path d="M2362 2043 c4 -21 33 -25 33 -3 0 8 -8 16 -18 18 -14 3 -18 -1 -15
-15z"/>
<path d="M1980 2000 c0 -11 6 -20 13 -20 19 0 27 10 20 26 -8 21 -33 17 -33
-6z"/>
<path d="M2204 1959 c-10 -17 13 -36 27 -22 12 12 4 33 -11 33 -5 0 -12 -5
-16 -11z"/>
<path d="M1882 1789 c-6 -13 -21 -50 -35 -81 l-26 -58 70 0 c38 0 69 1 69 3 0
1 -16 38 -35 82 -31 73 -35 77 -43 54z"/>
<path d="M2874 2819 c-3 -6 -2 -15 4 -21 13 -13 32 -2 32 18 0 16 -26 19 -36
3z"/>
<path d="M1717 2353 c-4 -3 -7 -12 -7 -20 0 -15 26 -18 34 -4 7 11 -18 33 -27
24z"/>
<path d="M840 1219 c0 -16 5 -20 27 -17 17 2 29 10 31 21 3 13 -3 17 -27 17
-25 0 -31 -4 -31 -21z"/>
<path d="M1012 1235 c-43 -31 -20 -85 37 -85 30 0 56 43 41 69 -6 12 -15 21
-20 21 -4 0 -14 2 -22 5 -7 3 -23 -2 -36 -10z"/>
<path d="M1570 1219 c0 -17 5 -20 32 -17 22 2 34 9 36 21 3 14 -4 17 -32 17
-30 0 -36 -4 -36 -21z"/>
<path d="M2670 1194 l0 -45 36 3 c43 4 60 24 50 61 -6 24 -11 27 -46 27 l-40
0 0 -46z"/>
<path d="M3017 1219 c-10 -36 -9 -39 13 -39 23 0 24 6 6 39 l-13 23 -6 -23z"/>
<path d="M3612 1215 c-16 -35 -16 -35 13 -35 28 0 30 5 12 38 l-13 23 -12 -26z"/>
<path d="M3760 1219 c0 -17 5 -20 32 -17 22 2 34 9 36 21 3 14 -4 17 -32 17
-30 0 -36 -4 -36 -21z"/>
<path d="M4300 1220 c0 -15 7 -20 29 -20 16 0 31 6 34 14 8 19 -1 26 -35 26
-21 0 -28 -5 -28 -20z"/>
</g>
</svg>
